<svg width="90" height="90" viewBox="0 0 90 90" fill="none" xmlns="http://www.w3.org/2000/svg">
<path d="M90 45C90 69.8528 69.8528 90 45 90C20.1472 90 0 69.8528 0 45C0 20.1472 20.1472 0 45 0C69.8528 0 90 20.1472 90 45Z" fill="#FFA700"/>
<path d="M57.2249 14.7386L57.2042 17.9229H57.2269V23.94H53.8734V18.0599L46.7229 18.0139L46.7345 42.6246H43.3916L43.38 18H44.5683L35.9325 17.9444V23.94H32.579V17.9229L32.6007 14.58L57.2249 14.7386Z" fill="#912F10"/>
<path d="M43.4183 59.5191L43.4126 47.5244H46.7555L46.7611 59.5191H56.6555V64.62H46.7635L46.767 72.0038L53.8771 72.0264L53.8602 66.0309L57.2136 66.02L57.2306 72.0371L57.2183 75.38L32.5938 75.3015L32.6055 72.1172L32.5829 72.1173L32.5659 66.1002L35.9193 66.0892L35.9359 71.9693L43.4242 71.9931L43.4207 64.62H32.9346V25.3473H38.8601V59.5191H43.4183Z" fill="#912F10"/>
</svg>

